<!-- Generated by IcoMoon.io -->
<svg version="1.1" xmlns="http://www.w3.org/2000/svg" width="512" height="512" viewBox="0 0 512 512">
<title></title>
<path d="M371.514 192h-67.646l-47.866 70.516-47.871-70.516h-67.645l81.081 121.232-91.486 134.768h125.919v-45.788h-25.078l25.078-37.497 55.698 83.285h70.222l-91.488-134.768 81.082-121.232z"></path>
<path d="M458.903 114.538c-11.105-15.146-26.587-32.85-43.589-49.852s-34.706-32.482-49.852-43.589c-25.787-18.91-38.296-21.097-45.462-21.097h-248c-22.056 0-40 17.944-40 40v432c0 22.056 17.943 40 40 40h368c22.056 0 40-17.944 40-40v-312c0-7.166-2.186-19.675-21.097-45.462v0zM392.687 87.313c15.35 15.35 27.4 29.199 36.29 40.687h-76.977v-76.973c11.491 8.89 25.339 20.939 40.687 36.286v0zM448 472c0 4.336-3.664 8-8 8h-368c-4.336 0-8-3.664-8-8v-432c0-4.336 3.664-8 8-8 0 0 247.978-0.001 248 0v112c0 8.836 7.162 16 16 16h112v312z"></path>
</svg>
