<!-- Generated by IcoMoon.io -->
<svg version="1.1" xmlns="http://www.w3.org/2000/svg" width="512" height="512" viewBox="0 0 512 512">
<title>PDF</title>
<path d="M421.006 294.74c-6.824-6.723-21.957-10.283-44.986-10.586-15.589-0.172-34.351 1.201-54.085 3.964-8.837-5.099-17.946-10.647-25.094-17.329-19.231-17.958-35.284-42.886-45.288-70.297 0.652-2.56 1.207-4.81 1.724-7.106 0 0 10.833-61.53 7.966-82.333-0.396-2.853-0.638-3.681-1.404-5.898l-0.941-2.417c-2.947-6.796-8.724-13.997-17.782-13.604l-5.458-0.172c-10.101 0-18.332 5.166-20.493 12.887-6.569 24.217 0.209 60.446 12.49 107.369l-3.144 7.643c-8.794 21.438-19.815 43.030-29.539 62.079l-1.264 2.477c-10.23 20.020-19.513 37.014-27.928 51.411l-8.688 4.594c-0.632 0.334-15.522 8.209-19.014 10.322-29.628 17.69-49.262 37.771-52.519 53.708-1.036 5.085-0.265 11.593 5.007 14.606l8.403 4.229c3.646 1.826 7.489 2.751 11.427 2.751 21.103 0 45.601-26.286 79.349-85.183 38.965-12.685 83.326-23.229 122.206-29.045 29.629 16.684 66.071 28.272 89.071 28.272 4.084 0 7.606-0.39 10.466-1.147 4.411-1.168 8.129-3.684 10.396-7.097 4.463-6.716 5.367-15.966 4.156-25.438-0.36-2.811-2.605-6.287-5.034-8.66zM105.823 407.024c3.849-10.521 19.080-31.322 41.603-49.778 1.416-1.148 4.904-4.416 8.097-7.451-23.552 37.562-39.324 52.533-49.7 57.229zM239.217 99.843c6.783 0 10.642 17.097 10.962 33.127s-3.429 27.28-8.079 35.604c-3.851-12.324-5.713-31.75-5.713-44.452 0 0-0.283-24.279 2.83-24.279v0zM199.426 318.747c4.725-8.458 9.641-17.378 14.665-26.839 12.246-23.158 19.979-41.278 25.739-56.173 11.455 20.842 25.722 38.56 42.492 52.756 2.093 1.771 4.31 3.551 6.638 5.325-34.105 6.748-63.582 14.955-89.534 24.931v0zM414.451 316.826c-2.076 1.299-8.026 2.050-11.854 2.050-12.354 0-27.636-5.647-49.063-14.833 8.234-0.609 15.781-0.919 22.551-0.919 12.391 0 16.060-0.054 28.175 3.036 12.114 3.090 12.269 9.367 10.191 10.666v0z"></path>
</svg>