<?xml version="1.0" encoding="UTF-8" standalone="no"?><!-- Generator: Gravit.io -->
<svg xmlns="http://www.w3.org/2000/svg"
    xmlns:xlink="http://www.w3.org/1999/xlink" viewBox="0 0 1024 256" width="1024" height="256">
    <g>
        <text x="464" y="152" style='font-family:-apple-systrem,BlinkMacSystremFont,"Segoe UI",Roboto,Oxygen-Sans,Ubuntu,Cantarell,"Helvetica Neue",Arial,sans-serif;font-weight:bold;font-size:64px;fill:#444;stroke:none;'>Iframe</text>
        <g>
            <path d=" M 400 124 L 408 124 C 409.105 124 410 123.105 410 122 C 410 120.896 409.105 120 408 120 L 400 120 C 398.895 120 398 120.896 398 122 C 398 123.105 398.895 124 400 124 Z " fill="rgb(68,68,68)"/>
            <path d=" M 400 116 L 408 116 C 409.105 116 410 115.105 410 114 C 410 112.896 409.105 112 408 112 L 400 112 C 398.895 112 398 112.896 398 114 C 398 115.105 398.895 116 400 116 Z " fill="rgb(68,68,68)"/>
            <path d=" M 400 132 L 408 132 C 409.105 132 410 131.105 410 130 C 410 128.896 409.105 128 408 128 L 400 128 C 398.895 128 398 128.896 398 130 C 398 131.105 398.895 132 400 132 Z " fill="rgb(68,68,68)"/>
            <path d=" M 372 148 L 408 148 C 409.105 148 410 147.105 410 146 C 410 144.895 409.105 144 408 144 L 372 144 C 370.896 144 370 144.895 370 146 C 370 147.105 370.896 148 372 148 Z " fill="rgb(68,68,68)"/>
            <path d=" M 372 140 L 408 140 C 409.105 140 410 139.105 410 138 C 410 136.895 409.105 136 408 136 L 372 136 C 370.896 136 370 136.895 370 138 C 370 139.105 370.896 140 372 140 Z " fill="rgb(68,68,68)"/>
            <path d=" M 392 108 L 372 108 C 370.9 108 370 108.9 370 110 L 370 130 C 370 131.1 370.9 132 372 132 L 392 132 C 393.1 132 394 131.1 394 130 L 394 110 C 394 108.9 393.1 108 392 108 Z  M 390 128 L 374 128 L 374 124 C 374 121.791 375.791 120 378 120 L 382 120 C 379.791 120 378 118.209 378 116 C 378 113.791 379.791 112 382 112 C 384.209 112 386 113.791 386 116 C 386 118.209 384.209 120 382 120 L 386 120 C 388.209 120 390 121.791 390 124 L 390 128 Z " fill="rgb(68,68,68)"/>
            <path d=" M 362 96 L 366 96 L 366 160 L 362 160 L 362 96 Z " fill="rgb(68,68,68)"/>
            <path d=" M 366 156 L 422 156 L 422 160 L 366 160 L 366 156 Z " fill="rgb(68,68,68)"/>
            <path d=" M 366 96 L 422 96 L 422 100 L 366 100 L 366 96 Z " fill="rgb(68,68,68)"/>
            <path d=" M 414 96 L 426 96 L 426 108 L 414 108 L 414 96 Z " fill="rgb(68,68,68)"/>
            <path d=" M 414 112 L 426 112 L 426 124 L 414 124 L 414 112 Z " fill="rgb(68,68,68)"/>
            <path d=" M 414 128 L 426 128 L 426 160 L 414 160 L 414 128 Z " fill="rgb(68,68,68)"/>
        </g>
    </g>
</svg>