<!-- Generated by IcoMoon.io -->
<svg version="1.1" xmlns="http://www.w3.org/2000/svg" width="549" height="512" viewBox="0 0 549 512">
<title>Cloud Upload</title>
<path d="M365.714 262.857c0-2.286-0.857-4.857-2.572-6.572l-100.572-100.572c-1.714-1.714-4-2.571-6.572-2.571-2.286 0-4.857 0.857-6.572 2.571l-100.286 100.286c-1.714 2-2.857 4.286-2.857 6.857 0 5.143 4 9.143 9.143 9.143h64v100.572c0 4.857 4.286 9.143 9.143 9.143h54.857c4.857 0 9.143-4.286 9.143-9.143v-100.572h64c5.143 0 9.143-4.286 9.143-9.143zM548.572 345.143c0 60.572-49.143 109.714-109.714 109.714h-310.857c-70.572 0-128-57.428-128-128 0-49.714 28.857-94.857 73.715-115.714-0.285-4.286-0.572-8.286-0.572-12.286 0-80.857 65.429-146.286 146.286-146.286 59.429 0 112.857 36 135.429 90.857 13.143-11.429 30-17.715 47.428-17.715 40.286 0 73.143 32.857 73.143 73.143 0 14-4 27.714-11.714 39.428 49.714 11.714 84.857 56 84.857 106.857z"></path>
</svg>