<?xml version="1.0" encoding="UTF-8" standalone="no"?>
<!DOCTYPE svg PUBLIC "-//W3C//DTD SVG 1.1//EN" "http://www.w3.org/Graphics/SVG/1.1/DTD/svg11.dtd">
<svg width="20" height="20" viewBox="0 0 20 20" version="1.1" xmlns="http://www.w3.org/2000/svg" xmlns:xlink="http://www.w3.org/1999/xlink" xml:space="preserve" xmlns:serif="http://www.serif.com/" style="fill-rule:evenodd;clip-rule:evenodd;stroke-linejoin:round;stroke-miterlimit:2;">
    <g transform="matrix(-0.398437,0,0,-0.398437,16.1016,16.2031)">
        <g transform="matrix(-2.59077,0,0,-2.59077,35.3921,35.6471)">
            <path d="M15.5,1.55C15.5,0.695 14.805,0 13.95,0L1.55,0C0.695,0 0,0.695 0,1.55L0,13.95C0,14.805 0.695,15.5 1.55,15.5L13.95,15.5C14.805,15.5 15.5,14.805 15.5,13.95L15.5,1.55Z"/>
        </g>
        <g transform="matrix(1.00392,0,0,1.00392,0.254895,1.51375)">
            <path d="M0,-2C0,2.582 0.755,7.397 2.243,11.326C3.682,15.124 5.771,18.474 8.451,21.283C11.104,24.064 14.255,26.23 17.815,27.719C21.433,29.233 25.364,30 29.5,30C29.67,30 29.828,29.914 29.92,29.771C30.012,29.628 30.026,29.448 29.955,29.293C28.912,26.997 26.253,24.869 22.052,22.968C21.455,22.698 20.865,22.45 20.294,22.224C20.684,22.237 21.08,22.244 21.482,22.244C23.834,22.244 25.502,22.005 25.572,21.995C25.74,21.97 25.884,21.862 25.955,21.708C26.025,21.554 26.013,21.375 25.922,21.231C24.412,18.859 21.114,16.669 16.119,14.722C15.708,14.561 15.301,14.409 14.904,14.266C15.196,14.274 15.488,14.279 15.78,14.279C18.106,14.279 19.537,14.002 19.597,13.991C19.769,13.957 19.911,13.835 19.971,13.669C20.03,13.504 19.998,13.319 19.887,13.183C15.328,7.611 12.213,6 6,6C4.585,6 3.484,4.772 2.727,2.351C2.127,0.431 2,-2 2,-2L0,-2Z" style="fill:white;fill-rule:nonzero;"/>
        </g>
    </g>
</svg>